<?xml version="1.0" encoding="UTF-8"?>
<svg width="100px" height="100px" viewBox="0 0 100 100" version="1.1" xmlns="http://www.w3.org/2000/svg" xmlns:xlink="http://www.w3.org/1999/xlink">
    <!-- Generator: Sketch 50.2 (55047) - http://www.bohemiancoding.com/sketch -->
    <title>Crop 8</title>
    <desc>Created with Sketch.</desc>
    <defs></defs>
    <g id="Page-1" stroke="none" stroke-width="1" fill="none" fill-rule="evenodd">
        <g id="Crop-8" fill="#FFFFFF">
            <g id="Group-3" transform="translate(20.000000, 0.000000)">
                <path d="M36,41.9945832 C36,39.7884358 37.7953562,38 40,38 L40,38 C42.209139,38 44,39.7830797 44,41.9945832 L44,114.005417 C44,116.211564 42.2046438,118 40,118 L40,118 C37.790861,118 36,116.21692 36,114.005417 L36,41.9945832 Z" id="Rectangle-3-Copy-12" transform="translate(40.000000, 78.000000) rotate(-90.000000) translate(-40.000000, -78.000000) "></path>
                <path d="M4.39648318e-14,3.99458325 C4.39648318e-14,1.78843584 1.79535615,7.10542736e-15 4,7.10542736e-15 L4,7.10542736e-15 C6.209139,7.10542736e-15 8,1.78307965 8,3.99458325 L8,76.0054168 C8,78.2115642 6.20464385,80 4,80 L4,80 C1.790861,80 4.39648318e-14,78.2169203 4.39648318e-14,76.0054168 L4.39648318e-14,3.99458325 Z" id="Rectangle-3-Copy-12"></path>
            </g>
            <g id="Group-3" transform="translate(40.000000, 59.000000) rotate(-180.000000) translate(-40.000000, -59.000000) translate(0.000000, 18.000000)">
                <path d="M36,41.9945832 C36,39.7884358 37.7953562,38 40,38 L40,38 C42.209139,38 44,39.7830797 44,41.9945832 L44,114.005417 C44,116.211564 42.2046438,118 40,118 L40,118 C37.790861,118 36,116.21692 36,114.005417 L36,41.9945832 Z" id="Rectangle-3-Copy-12" transform="translate(40.000000, 78.000000) rotate(-90.000000) translate(-40.000000, -78.000000) "></path>
                <path d="M4.39648318e-14,3.99458325 C4.39648318e-14,1.78843584 1.79535615,7.10542736e-15 4,7.10542736e-15 L4,7.10542736e-15 C6.209139,7.10542736e-15 8,1.78307965 8,3.99458325 L8,76.0054168 C8,78.2115642 6.20464385,80 4,80 L4,80 C1.790861,80 4.39648318e-14,78.2169203 4.39648318e-14,76.0054168 L4.39648318e-14,3.99458325 Z" id="Rectangle-3-Copy-12"></path>
            </g>
        </g>
    </g>
</svg>