<?xml version="1.0" encoding="UTF-8"?>
<svg width="100px" height="100px" viewBox="0 0 100 100" version="1.1" xmlns="http://www.w3.org/2000/svg" xmlns:xlink="http://www.w3.org/1999/xlink">
    <!-- Generator: Sketch 53.2 (72643) - https://sketchapp.com -->
    <title>Group</title>
    <desc>Created with Sketch.</desc>
    <g id="Page-1" stroke="none" stroke-width="1" fill="none" fill-rule="evenodd">
        <g id="Off-8" fill="#FFFFFF">
            <g id="Group">
                <path d="M50,92 C73.1959595,92 92,73.1959595 92,50 C92,26.8040405 73.1959595,8 50,8 C26.8040405,8 8,26.8040405 8,50 C8,73.1959595 26.8040405,92 50,92 Z M50,100 C22.3857625,100 0,77.6142375 0,50 C0,22.3857625 22.3857625,0 50,0 C77.6142375,0 100,22.3857625 100,50 C100,77.6142375 77.6142375,100 50,100 Z" id="Oval-10" fill-rule="nonzero"></path>
                <path d="M25.7989899,49.7989899 C25.7989899,47.5898509 27.5930423,45.7989899 29.8088831,45.7989899 L69.7890967,45.7989899 C72.0036995,45.7989899 73.7989899,47.594346 73.7989899,49.7989899 L73.7989899,49.7989899 C73.7989899,52.0081289 72.0049374,53.7989899 69.7890967,53.7989899 L29.8088831,53.7989899 C27.5942802,53.7989899 25.7989899,52.0036337 25.7989899,49.7989899 L25.7989899,49.7989899 Z" id="Hor" transform="translate(49.798990, 49.798990) scale(-1, 1) rotate(45.000000) translate(-49.798990, -49.798990) "></path>
                <path d="M25.7989899,49.7989899 C25.7989899,47.5898509 27.5930423,45.7989899 29.8088831,45.7989899 L69.7890967,45.7989899 C72.0036995,45.7989899 73.7989899,47.594346 73.7989899,49.7989899 L73.7989899,49.7989899 C73.7989899,52.0081289 72.0049374,53.7989899 69.7890967,53.7989899 L29.8088831,53.7989899 C27.5942802,53.7989899 25.7989899,52.0036337 25.7989899,49.7989899 L25.7989899,49.7989899 Z" id="Hor" transform="translate(49.798990, 49.798990) scale(-1, 1) rotate(-225.000000) translate(-49.798990, -49.798990) "></path>
            </g>
        </g>
    </g>
</svg>