<?xml version="1.0" encoding="UTF-8"?>
<svg width="73px" height="101px" viewBox="0 0 73 101" version="1.1" xmlns="http://www.w3.org/2000/svg" xmlns:xlink="http://www.w3.org/1999/xlink">
    <!-- Generator: Sketch 51.2 (57519) - http://www.bohemiancoding.com/sketch -->
    <title>Ending 4</title>
    <desc>Created with Sketch.</desc>
    <defs></defs>
    <g id="Page-1" stroke="none" stroke-width="1" fill="none" fill-rule="evenodd">
        <g id="Ending-4" transform="translate(0.449707, -2.000000)">
            <rect id="Combined-Shape" fill="#000000" x="0" y="3" width="72" height="100" rx="8"></rect>
            <path d="M5.40139248,37.6889172 L85.2170288,37.6675645 C84.9677804,38.182013 84.7111348,38.5712587 84.4470919,38.8353016 C84.1830489,39.0993445 83.2184737,40.0639198 81.5533661,41.7290274 L5.4013923,41.690465 C4.29665915,41.6899056 3.40139256,40.7941855 3.40139256,39.6894522 L3.40139256,39.6894522 C3.40139256,38.5847962 4.29673649,37.6892127 5.40139248,37.6889172 Z" id="Rectangle" fill="#FFFFFF" transform="translate(44.309211, 39.698296) rotate(-45.000000) translate(-44.309211, -39.698296) "></path>
            <path d="M7.99087043,22.2410138 L66.1140919,22.2441274 L70.131284,26.2613195 L7.99087033,26.2415432 C6.88619794,26.2411916 5.99087043,25.3455791 5.99087043,24.2409067 L5.99087043,24.2409067 C5.99087043,23.1363963 6.88625296,22.2410138 7.9907633,22.2410138 C7.99079901,22.2410138 7.99083472,22.2410138 7.99087043,22.2410138 Z" id="Rectangle" fill="#FFFFFF" transform="translate(38.061077, 24.251167) rotate(-45.000000) translate(-38.061077, -24.251167) "></path>
            <path d="M12.1676494,12.1107544 L41.7685276,12.128901 L45.7393137,16.0996871 L12.1676497,16.108975 C11.0633858,16.1092805 10.1679554,15.2143454 10.1676499,14.1100815 C10.1676498,14.1098971 10.1676498,14.1097127 10.1676498,14.1095283 L10.1676498,14.1095283 C10.1676498,13.0056357 11.0625315,12.110754 12.1664241,12.110754 C12.1668325,12.110754 12.167241,12.1107541 12.1676494,12.1107544 Z" id="Rectangle" fill="#FFFFFF" transform="translate(27.953482, 14.109865) rotate(-45.000000) translate(-27.953482, -14.109865) "></path>
        </g>
    </g>
</svg>