<?xml version="1.0" encoding="UTF-8"?>
<svg width="62px" height="100px" viewBox="0 0 62 100" version="1.1" xmlns="http://www.w3.org/2000/svg" xmlns:xlink="http://www.w3.org/1999/xlink">
    <!-- Generator: Sketch 52.2 (67145) - http://www.bohemiancoding.com/sketch -->
    <title>Untitled</title>
    <desc>Created with Sketch.</desc>
    <g id="Page-1" stroke="none" stroke-width="1" fill="none" fill-rule="evenodd">
        <g id="Save-9" fill="#FFFFFF">
            <g id="Save-8" transform="translate(31.000000, 50.000000) rotate(-180.000000) translate(-31.000000, -50.000000) ">
                <path d="M-3.38477631,51.6152237 C-3.38477631,49.4060847 -1.59168508,47.6152237 0.617033682,47.6152237 L36.6134137,47.6152237 C38.8235523,47.6152237 40.6152237,49.4105798 40.6152237,51.6152237 L40.6152237,51.6152237 C40.6152237,53.8243627 38.8221325,55.6152237 36.6134137,55.6152237 L0.617033682,55.6152237 C-1.59310495,55.6152237 -3.38477631,53.8198675 -3.38477631,51.6152237 L-3.38477631,51.6152237 Z" id="R" transform="translate(18.615224, 51.615224) rotate(-45.000000) translate(-18.615224, -51.615224) "></path>
                <path d="M21.6152237,51.6152237 C21.6152237,49.4060847 23.4083149,47.6152237 25.6170337,47.6152237 L61.6134137,47.6152237 C63.8235523,47.6152237 65.6152237,49.4105798 65.6152237,51.6152237 L65.6152237,51.6152237 C65.6152237,53.8243627 63.8221325,55.6152237 61.6134137,55.6152237 L25.6170337,55.6152237 C23.4068951,55.6152237 21.6152237,53.8198675 21.6152237,51.6152237 L21.6152237,51.6152237 Z" id="L" transform="translate(43.615224, 51.615224) scale(-1, 1) rotate(-45.000000) translate(-43.615224, -51.615224) "></path>
                <rect id="Mid" x="27" y="35.3333333" width="8" height="64" rx="4"></rect>
                <path d="M27,-19.9950917 C27,-22.2069415 28.7953562,-24 31,-24 L31,-24 C33.209139,-24 35,-22.200205 35,-19.9950917 L35,27.9950917 C35,30.2069415 33.2046438,32 31,32 L31,32 C28.790861,32 27,30.200205 27,27.9950917 L27,-19.9950917 Z" id="Bottom" transform="translate(31.000000, 4.000000) rotate(-90.000000) translate(-31.000000, -4.000000) "></path>
            </g>
        </g>
    </g>
</svg>