<?xml version="1.0" encoding="UTF-8"?>
<svg width="100px" height="100px" viewBox="0 0 100 100" version="1.1" xmlns="http://www.w3.org/2000/svg" xmlns:xlink="http://www.w3.org/1999/xlink">
    <!-- Generator: Sketch 52.3 (67297) - http://www.bohemiancoding.com/sketch -->
    <title>Untitled 2</title>
    <desc>Created with Sketch.</desc>
    <g id="Page-1" stroke="none" stroke-width="1" fill="none" fill-rule="evenodd">
        <g id="Play-8" transform="translate(50.000000, 50.000000) rotate(-180.000000) translate(-50.000000, -50.000000) " fill="#FFFFFF">
            <path d="M50.0000596,100 C22.3858221,100 5.95580513e-05,77.6142375 5.95580513e-05,50 C5.95580513e-05,22.3857625 22.3858221,-1.42108547e-14 50.0000596,-1.42108547e-14 C77.614297,-1.42108547e-14 100.00006,22.3857625 100.00006,50 C100.00006,77.6142375 77.614297,100 50.0000596,100 Z M58.5857737,30.8351311 L31.4796677,47.7764474 C29.6130698,48.943071 29.6083667,50.8422471 31.4796677,52.0118102 L58.5857737,68.9531265 C60.4523716,70.1197501 61.974064,69.2783468 61.974064,67.0672339 L61.974064,32.7210237 C61.974064,30.5102685 60.4570748,29.6655679 58.5857737,30.8351311 Z" id="Combined-Shape"></path>
        </g>
    </g>
</svg>