<?xml version="1.0" encoding="UTF-8"?>
<svg width="433px" height="304px" viewBox="0 0 433 304" version="1.1" xmlns="http://www.w3.org/2000/svg" xmlns:xlink="http://www.w3.org/1999/xlink">
    <!-- Generator: Sketch 52.2 (67145) - http://www.bohemiancoding.com/sketch -->
    <title>aurora-sd-nux</title>
    <desc>Created with Sketch.</desc>
    <g id="Page-1" stroke="none" stroke-width="1" fill="none" fill-rule="evenodd">
        <g id="Rylo-4" transform="translate(216.500000, 152.000000) rotate(-270.000000) translate(-216.500000, -152.000000) translate(64.500000, -64.500000)">
            <path d="M126,2.36126521 L126,430.638735 L183.891825,427.502928 C250.129764,423.915039 302,369.159127 302,302.824087 L302,130.175913 C302,63.8408729 250.129764,9.08496078 183.891825,5.49707241 L126,2.36126521 Z" id="Combined-Shape" stroke="#333333" stroke-width="4" fill="#000000"></path>
            <rect id="Rectangle" stroke="#333333" stroke-width="4" fill="#000000" x="2" y="2" width="236" height="429" rx="118"></rect>
            <circle id="Oval" stroke="#333333" stroke-width="4" cx="118.5" cy="324.5" r="63.5"></circle>
            <path d="M257,117 C253.686292,117 251,119.686292 251,123 L251,296 C251,299.313708 253.686292,302 257,302 L283,302 C286.313708,302 289,299.313708 289,296 L289,123 C289,119.686292 286.313708,117 283,117 L257,117 Z" id="Rectangle-2" stroke="#FFFFFF" stroke-width="4"></path>
            <path d="M251,129 L289,129 L289,123 C289,119.686292 286.313708,117 283,117 L257,117 C253.686292,117 251,119.686292 251,123 L251,129 Z" id="Rectangle-2" stroke="#FFFFFF" stroke-width="4"></path>
            <path d="M257,296 L283,296 C287.418278,296 291,299.581722 291,304 L249,304 L249,304 C249,299.581722 252.581722,296 257,296 Z" id="Rectangle-2" fill="#FFFFFF" transform="translate(270.000000, 300.000000) rotate(-180.000000) translate(-270.000000, -300.000000) "></path>
            <g id="Group-3" transform="translate(118.000000, 131.000000) rotate(-180.000000) translate(-118.000000, -131.000000) translate(62.000000, 48.500000)" stroke="#333333" stroke-width="4">
                <path d="M26,1.99999997 C12.745166,1.99999997 2,12.745166 2,26 L2,130.41114 C2,139.340656 6.95750714,147.531879 14.8684544,151.673517 C29.3045704,159.231293 43.6751115,163 58,163 C71.9885215,163 85.2759978,159.406794 97.8944622,152.206577 C105.379503,147.935542 110,139.979255 110,131.361391 L110,25.9999999 C110,12.7451659 99.2548342,1.99999994 86.0000002,1.99999994 L26,1.99999997 Z" id="Rectangle-2"></path>
                <path d="M110,116 L2,116 L2,130.41114 C2,139.340656 6.95750714,147.531879 14.8684544,151.673517 C29.3045704,159.231293 43.6751115,163 58,163 C71.9885215,163 85.2759978,159.406794 97.8944622,152.206577 C105.379503,147.935542 110,139.979255 110,131.361391 L110,116 Z" id="Combined-Shape"></path>
                <path d="M89.5,24.5 L24.5,24.5" id="Line-2" stroke-linecap="round"></path>
            </g>
        </g>
    </g>
</svg>