<?xml version="1.0" encoding="UTF-8"?>
<svg width="100px" height="72px" viewBox="0 0 100 72" version="1.1" xmlns="http://www.w3.org/2000/svg" xmlns:xlink="http://www.w3.org/1999/xlink">
    <!-- Generator: Sketch 51.2 (57519) - http://www.bohemiancoding.com/sketch -->
    <title>SD Card 8</title>
    <desc>Created with Sketch.</desc>
    <defs></defs>
    <g id="Page-1" stroke="none" stroke-width="1" fill="none" fill-rule="evenodd">
        <g id="SD-Card-8" transform="translate(50.000000, 36.000000) scale(1, -1) rotate(-90.000000) translate(-50.000000, -36.000000) translate(14.000000, -14.000000)" fill="#FFFFFF">
            <path d="M-8.8817842e-13,7.99335421 C-8.8817842e-13,3.57874658 3.58726941,7.99372018e-14 8.00284615,7.21536619e-14 L56.9971538,-1.42108547e-14 C61.4170037,-2.20019271e-14 65,3.57559919 65,7.99075354 L65,20 L70.3764648,23.840332 C71.2731186,24.480799 72,25.8945335 72,27.0060688 L72,92.0092204 C72,96.4224061 68.4172013,100 64.0023206,100 L7.99767944,100 C3.58068305,100 -8.8817842e-13,96.4114635 -8.8817842e-13,92.0066458 L-8.8817842e-13,7.99335421 Z M8,11.9949844 L8,88.0050156 C8,90.2066793 9.79305852,92 12.0049083,92 L59.9950917,92 C62.200205,92 64,90.207578 64,87.9965134 L64,30.0032986 C64,28.9047241 63.2489819,27.5201829 62.3225541,26.9282985 L58.820303,24.6907491 C57.9028912,24.1046249 57.1428571,22.7191659 57.1428571,21.6091056 L57.1428571,12.0020105 C57.1428571,9.79170336 55.3516694,8 53.1421272,8 L12.0007299,8 C9.7926504,8 8,9.78861542 8,11.9949844 Z" id="Combined-Shape"></path>
            <rect id="Rectangle" x="14" y="14" width="8" height="20" rx="4"></rect>
            <rect id="Rectangle" x="28" y="14" width="8" height="20" rx="4"></rect>
            <rect id="Rectangle" x="42" y="14" width="8" height="20" rx="4"></rect>
        </g>
    </g>
</svg>