<?xml version="1.0" encoding="UTF-8"?>
<svg width="100px" height="74px" viewBox="0 0 100 74" version="1.1" xmlns="http://www.w3.org/2000/svg" xmlns:xlink="http://www.w3.org/1999/xlink">
    <!-- Generator: Sketch 51.2 (57519) - http://www.bohemiancoding.com/sketch -->
    <title>Cloud 8</title>
    <desc>Created with Sketch.</desc>
    <defs></defs>
    <g id="Page-1" stroke="none" stroke-width="1" fill="none" fill-rule="evenodd">
        <g id="Cloud-8" stroke="#FFFFFF" stroke-width="8">
            <path d="M16.2248548,30.7038364 L17.2120097,33.9521348 L14.1673606,35.4541432 C7.99211458,38.5005603 4,44.7886151 4,51.7933053 C4,61.8501027 12.1521513,70 22.2109734,70 L77.7291467,70 C87.7845654,70 95.9401201,61.8469859 95.9401201,51.7933053 C95.9401201,44.1019124 91.1280734,37.3207265 84.0299481,34.7043459 L80.9250299,33.559868 L81.467474,30.2954996 C81.6727514,29.0601628 81.776797,27.8016947 81.776797,26.528187 C81.776797,14.0773524 71.7992203,4 59.5112653,4 C52.3915858,4 45.8349701,7.40005477 41.6526181,13.0712 L39.5411444,15.9342955 L36.4511874,14.1713996 C34.3771235,12.9880955 32.037335,12.3585666 29.598313,12.3585666 C21.8809608,12.3585666 15.6085898,18.6936612 15.6085898,26.528187 C15.6085898,27.9631324 15.8179707,29.3649576 16.2248548,30.7038364 Z" id="Cloud"></path>
        </g>
    </g>
</svg>