<?xml version="1.0" encoding="UTF-8"?>
<svg width="100px" height="100px" viewBox="0 0 100 100" version="1.1" xmlns="http://www.w3.org/2000/svg" xmlns:xlink="http://www.w3.org/1999/xlink">
    <!-- Generator: Sketch 50.2 (55047) - http://www.bohemiancoding.com/sketch -->
    <title>Light 8</title>
    <desc>Created with Sketch.</desc>
    <defs></defs>
    <g id="Page-1" stroke="none" stroke-width="1" fill="none" fill-rule="evenodd">
        <g id="Light-8" transform="translate(-21.000000, -21.000000)">
            <g id="Four" transform="translate(21.000000, 21.000000)" fill="#FFFFFF">
                <path d="M46,3.99005301 C46,1.78640758 47.7953562,0 50,0 L50,0 C52.209139,0 54,1.78429328 54,3.99005301 L54,20.009947 C54,22.2135924 52.2046438,24 50,24 L50,24 C47.790861,24 46,22.2157067 46,20.009947 L46,3.99005301 Z" id="Rectangle-3-Copy-6"></path>
                <path d="M46,79.990053 C46,77.7864076 47.7953562,76 50,76 L50,76 C52.209139,76 54,77.7842933 54,79.990053 L54,96.009947 C54,98.2135924 52.2046438,100 50,100 L50,100 C47.790861,100 46,98.2157067 46,96.009947 L46,79.990053 Z" id="Rectangle-3-Copy-6"></path>
                <path d="M84,41.990053 C84,39.7864076 85.7953562,38 88,38 L88,38 C90.209139,38 92,39.7842933 92,41.990053 L92,58.009947 C92,60.2135924 90.2046438,62 88,62 L88,62 C85.790861,62 84,60.2157067 84,58.009947 L84,41.990053 Z" id="Rectangle-3-Copy-6" transform="translate(88.000000, 50.000000) rotate(-90.000000) translate(-88.000000, -50.000000) "></path>
                <path d="M8,41.990053 C8,39.7864076 9.79535615,38 12,38 L12,38 C14.209139,38 16,39.7842933 16,41.990053 L16,58.009947 C16,60.2135924 14.2046438,62 12,62 L12,62 C9.790861,62 8,60.2157067 8,58.009947 L8,41.990053 Z" id="Rectangle-3-Copy-6" transform="translate(12.000000, 50.000000) rotate(-90.000000) translate(-12.000000, -50.000000) "></path>
            </g>
            <g id="Four" transform="translate(71.000000, 71.000000) rotate(-315.000000) translate(-71.000000, -71.000000) translate(21.000000, 21.000000)" fill="#FFFFFF">
                <path d="M46,3.99005301 C46,1.78640758 47.7953562,0 50,0 L50,0 C52.209139,0 54,1.78429328 54,3.99005301 L54,20.009947 C54,22.2135924 52.2046438,24 50,24 L50,24 C47.790861,24 46,22.2157067 46,20.009947 L46,3.99005301 Z" id="Rectangle-3-Copy-6"></path>
                <path d="M46,79.990053 C46,77.7864076 47.7953562,76 50,76 L50,76 C52.209139,76 54,77.7842933 54,79.990053 L54,96.009947 C54,98.2135924 52.2046438,100 50,100 L50,100 C47.790861,100 46,98.2157067 46,96.009947 L46,79.990053 Z" id="Rectangle-3-Copy-6"></path>
                <path d="M84,41.990053 C84,39.7864076 85.7953562,38 88,38 L88,38 C90.209139,38 92,39.7842933 92,41.990053 L92,58.009947 C92,60.2135924 90.2046438,62 88,62 L88,62 C85.790861,62 84,60.2157067 84,58.009947 L84,41.990053 Z" id="Rectangle-3-Copy-6" transform="translate(88.000000, 50.000000) rotate(-90.000000) translate(-88.000000, -50.000000) "></path>
                <path d="M8,41.990053 C8,39.7864076 9.79535615,38 12,38 L12,38 C14.209139,38 16,39.7842933 16,41.990053 L16,58.009947 C16,60.2135924 14.2046438,62 12,62 L12,62 C9.790861,62 8,60.2157067 8,58.009947 L8,41.990053 Z" id="Rectangle-3-Copy-6" transform="translate(12.000000, 50.000000) rotate(-90.000000) translate(-12.000000, -50.000000) "></path>
            </g>
            <circle id="Oval-16" stroke="#FFFFFF" stroke-width="8" cx="71" cy="71" r="10"></circle>
        </g>
    </g>
</svg>