<?xml version="1.0" encoding="UTF-8"?>
<svg width="104px" height="100px" viewBox="0 0 104 100" version="1.1" xmlns="http://www.w3.org/2000/svg" xmlns:xlink="http://www.w3.org/1999/xlink">
    <!-- Generator: Sketch 50.2 (55047) - http://www.bohemiancoding.com/sketch -->
    <title>Audio On 8</title>
    <desc>Created with Sketch.</desc>
    <defs></defs>
    <g id="Page-1" stroke="none" stroke-width="1" fill="none" fill-rule="evenodd">
        <g id="Audio-On-8" transform="translate(0.000000, -0.003906)" stroke="#FFFFFF" stroke-width="8">
            <path d="M90,24 C90,24 100,35.4771169 100,50 C100,63.8257056 90,78 90,78" id="Line" stroke-linecap="round" stroke-linejoin="round"></path>
            <path d="M80,33 C80,33 87,40.6514112 87,50 C87,59.5504704 80,69 80,69" id="Small" stroke-linecap="round"></path>
            <path d="M57.1452675,4.72069227 C57.0124739,4.73400365 56.8234847,4.78214779 56.580822,4.87967186 C55.7492403,5.21387745 54.6908282,5.96602609 53.5132647,7.1435895 L28.6568542,32 L7.9913008,32 C5.79224528,32 4,33.7929003 4,35.9994481 L4,66.0005519 C4,68.2051541 5.79163976,70 7.9913008,70 L28.5883702,70 L53.1017163,93.1125835 C54.3073961,94.2493673 55.3913577,94.9665563 56.2498286,95.2769368 C56.727762,95.4497339 56.9432287,95.4528177 57.0052413,95.4260513 C57.0673209,95.399256 57.2129891,95.2402266 57.4151688,94.7737946 C57.7782364,93.9361916 58,92.6555623 58,90.9986899 L58,9.00131006 C58,7.33606588 57.783435,6.05595726 57.4317567,5.23181444 C57.3291943,4.9914638 57.2296797,4.82392463 57.1452675,4.72069227 Z" id="Rectangle-11"></path>
        </g>
    </g>
</svg>